# xmcd CD database file
#
# Track frame offsets:
#	150
#	18120
#	35752
#	52595
#	67387
#	88852
#	107400
#	126630
#	143202
#	157867
#
# Disc length: 2340 seconds
#
# Revision: 0
# Processed by: cddbd v1.5PL3 Copyright (c) Steve Scherf et al.
# Submitted via: CDex 1.51
#
DISCID=8409220a
DTITLE=桑田靖子 - ファースト・キス
DYEAR=2003
DGENRE=Pop
TTITLE0=夏を変えて
TTITLE1=八月の窓辺
TTITLE2=愛の純度
TTITLE3=湘南物語(ストーリー)
TTITLE4=すずらんの街で
TTITLE5=脱・プラトニック
TTITLE6=Non Non Non
TTITLE7=ふたりに嵐が
TTITLE8=青い莟(つぼみ)
TTITLE9=リフレイン
EXTD=YEAR: 2003
EXTT0=
EXTT1=
EXTT2=
EXTT3=
EXTT4=
EXTT5=
EXTT6=
EXTT7=
EXTT8=
EXTT9=
PLAYORDER=
